<svg width="92" height="92" viewBox="0 0 92 92" fill="none" xmlns="http://www.w3.org/2000/svg">
<g clip-path="url(#clip0_1_2788)">
<rect width="92" height="92" rx="14" fill="#171957"/>
<g filter="url(#filter0_b_1_2788)">
<g filter="url(#filter1_b_1_2788)">
<path fill-rule="evenodd" clip-rule="evenodd" d="M38.4534 18.2675C38.4534 28.0943 31.8095 36.3693 22.7686 38.8458C22.8799 39.7286 22.9373 40.6282 22.9373 41.5412C22.9373 53.3238 13.3856 62.2174 1.60292 62.2174C-10.1797 62.2174 -19.7314 53.3238 -19.7314 41.5412C-19.7314 32.9665 -14.6728 25.5733 -7.377 22.1831C-8.97614 21.1462 -10.0341 19.3455 -10.0341 17.2976C-10.0341 14.0842 -7.42905 11.4792 -4.2156 11.4792C-3.84999 11.4792 -3.49226 11.5129 -3.14535 11.5774C-0.338882 3.07181 7.67318 -3.06689 17.119 -3.06689C28.9017 -3.06689 38.4534 6.48483 38.4534 18.2675Z" fill="url(#paint0_linear_1_2788)" fill-opacity="0.8"/>
</g>
<g filter="url(#filter2_b_1_2788)">
<path fill-rule="evenodd" clip-rule="evenodd" d="M71.3772 31.7559C69.5155 28.0991 65.7158 25.5942 61.3312 25.5942C58.3252 25.5942 55.5942 26.7715 53.574 28.6902C52.6492 27.8439 51.4173 27.3276 50.0649 27.3276C47.1932 27.3276 44.8652 29.6555 44.8652 32.5272C44.8652 35.399 47.1932 37.7269 50.0649 37.7269L50.098 37.7268C50.5006 43.0194 54.5601 47.2898 59.7554 48.0169C59.6815 48.7209 59.6437 49.4357 59.6437 50.1593C59.6437 61.3656 68.7282 70.4501 79.9345 70.4501C91.1408 70.4501 100.225 61.3656 100.225 50.1593C100.225 38.953 91.1408 29.8685 79.9345 29.8685C76.8769 29.8685 73.9774 30.5447 71.3772 31.7559Z" fill="url(#paint1_linear_1_2788)" fill-opacity="0.8"/>
</g>
<g filter="url(#filter3_b_1_2788)">
<path d="M-0.0763474 95.4233C-42.2709 95.4103 -74.3266 95.4654 -75.0886 95.6559C-75.9182 91.9229 -64.9968 91.6 -59.0486 91.9168C-59.7907 90.8754 -60.2272 89.6011 -60.2272 88.225C-60.2272 84.7076 -57.3754 81.8558 -53.858 81.8558C-53.0297 81.8558 -52.2382 82.0144 -51.512 82.3021C-50.776 79.5979 -48.3025 77.6096 -45.3657 77.6096C-44.0569 77.6096 -42.8404 78.0046 -41.8286 78.6815C-40.6986 76.7222 -38.9602 75.1579 -36.8723 74.2462C-36.7764 65.5346 -29.6847 58.5019 -20.9503 58.5019C-19.4653 58.5019 -18.028 58.7051 -16.6642 59.0856C-14.0793 51.9352 -7.23065 46.825 0.811226 46.825L1.03929 46.8266C1.21189 46.8287 1.3845 46.8328 1.55554 46.8395C1.86188 46.852 2.16614 46.8717 2.46832 46.8981C2.75444 46.9235 3.039 46.9551 3.3215 46.9935C3.55007 47.0246 3.7771 47.0593 4.00258 47.0982C3.65115 45.6495 3.46507 44.1359 3.46507 42.5789C3.46507 32.0262 12.0201 23.4712 22.5727 23.4712C32.533 23.4712 40.7137 31.0932 41.6006 40.8223C42.8285 40.5818 44.0974 40.4558 45.3958 40.4558C55.1524 40.4558 63.2466 47.5702 64.7747 56.894L67.0703 57.8278C69.2107 56.8958 71.5738 56.3789 74.0573 56.3789C78.3652 56.3789 82.3096 57.9339 85.36 60.5131C88.2331 52.5318 95.8712 46.825 104.842 46.825C115.562 46.825 124.378 54.9737 125.436 65.4149C131.819 67.129 136.619 72.7114 137.166 79.4948C137.388 79.6917 137.605 79.8949 137.816 80.1038C138.051 80.336 138.278 80.5755 138.497 80.8217C138.873 81.2436 139.227 81.6858 139.556 82.1466C139.787 82.074 140.024 82.0144 140.266 81.9688C140.292 81.9638 140.318 81.959 140.344 81.9543C140.39 81.9462 140.435 81.9386 140.48 81.9314L140.644 81.9081C140.823 81.8848 141.005 81.8693 141.188 81.8615L141.32 81.8573L141.465 81.8558C144.982 81.8558 147.834 84.7076 147.834 88.225C147.834 89.6115 147.391 90.8946 146.639 91.9404H157.919C162.165 91.9404 162.519 94.4174 162.165 95.6559C155.896 95.6418 149.123 95.6272 141.966 95.6125C140.122 102.367 133.943 107.333 126.603 107.333C119.243 107.333 113.049 102.338 111.225 95.5537C104.149 95.5411 96.8969 95.5289 89.5536 95.5173C86.6556 99.4635 81.9825 102.025 76.7112 102.025C71.4232 102.025 66.7372 99.4472 63.8413 95.4798C52.2021 95.4644 40.5758 95.4512 29.2826 95.4413C25.6857 99.4808 20.4456 102.025 14.6112 102.025C8.76815 102.025 3.52106 99.4732 -0.0763474 95.4233Z" fill="url(#paint2_linear_1_2788)" fill-opacity="0.8"/>
</g>
</g>
<g filter="url(#filter4_d_1_2788)">
<path fill-rule="evenodd" clip-rule="evenodd" d="M54.2462 19.9665C48.8188 25.2225 46.5977 33.3341 49.2182 40.9505C52.6238 50.8492 62.9908 56.3757 72.9635 53.9402C70.401 61.0472 64.7587 66.9725 57.0588 69.6216C43.5669 74.2635 28.8665 67.0891 24.2247 53.5972C19.5828 40.1053 26.7572 25.405 40.2491 20.7631C44.926 19.154 49.7481 18.9648 54.2462 19.9665Z" fill="white"/>
</g>
</g>
<defs>
<filter id="filter0_b_1_2788" x="-85.1333" y="-13.0669" width="257.402" height="130.399" filterUnits="userSpaceOnUse" color-interpolation-filters="sRGB">
<feFlood flood-opacity="0" result="BackgroundImageFix"/>
<feGaussianBlur in="BackgroundImageFix" stdDeviation="5"/>
<feComposite in2="SourceAlpha" operator="in" result="effect1_backgroundBlur_1_2788"/>
<feBlend mode="normal" in="SourceGraphic" in2="effect1_backgroundBlur_1_2788" result="shape"/>
</filter>
<filter id="filter1_b_1_2788" x="-29.7314" y="-13.0669" width="78.1851" height="85.2842" filterUnits="userSpaceOnUse" color-interpolation-filters="sRGB">
<feFlood flood-opacity="0" result="BackgroundImageFix"/>
<feGaussianBlur in="BackgroundImageFix" stdDeviation="5"/>
<feComposite in2="SourceAlpha" operator="in" result="effect1_backgroundBlur_1_2788"/>
<feBlend mode="normal" in="SourceGraphic" in2="effect1_backgroundBlur_1_2788" result="shape"/>
</filter>
<filter id="filter2_b_1_2788" x="34.8652" y="15.5942" width="75.3601" height="64.856" filterUnits="userSpaceOnUse" color-interpolation-filters="sRGB">
<feFlood flood-opacity="0" result="BackgroundImageFix"/>
<feGaussianBlur in="BackgroundImageFix" stdDeviation="5"/>
<feComposite in2="SourceAlpha" operator="in" result="effect1_backgroundBlur_1_2788"/>
<feBlend mode="normal" in="SourceGraphic" in2="effect1_backgroundBlur_1_2788" result="shape"/>
</filter>
<filter id="filter3_b_1_2788" x="-85.1333" y="4.979" width="257.402" height="112.354" filterUnits="userSpaceOnUse" color-interpolation-filters="sRGB">
<feFlood flood-opacity="0" result="BackgroundImageFix"/>
<feGaussianBlur in="BackgroundImageFix" stdDeviation="5"/>
<feComposite in2="SourceAlpha" operator="in" result="effect1_backgroundBlur_1_2788"/>
<feBlend mode="normal" in="SourceGraphic" in2="effect1_backgroundBlur_1_2788" result="shape"/>
</filter>
<filter id="filter4_d_1_2788" x="14.812" y="11.3506" width="66.1514" height="67.6836" filterUnits="userSpaceOnUse" color-interpolation-filters="sRGB">
<feFlood flood-opacity="0" result="BackgroundImageFix"/>
<feColorMatrix in="SourceAlpha" type="matrix" values="0 0 0 0 0 0 0 0 0 0 0 0 0 0 0 0 0 0 127 0" result="hardAlpha"/>
<feOffset/>
<feGaussianBlur stdDeviation="4"/>
<feComposite in2="hardAlpha" operator="out"/>
<feColorMatrix type="matrix" values="0 0 0 0 1 0 0 0 0 1 0 0 0 0 1 0 0 0 0.25 0"/>
<feBlend mode="normal" in2="BackgroundImageFix" result="effect1_dropShadow_1_2788"/>
<feBlend mode="normal" in="SourceGraphic" in2="effect1_dropShadow_1_2788" result="shape"/>
</filter>
<linearGradient id="paint0_linear_1_2788" x1="9.36097" y1="-3.06689" x2="9.36097" y2="62.2174" gradientUnits="userSpaceOnUse">
<stop stop-color="#2E3388"/>
<stop offset="1" stop-color="#131651"/>
</linearGradient>
<linearGradient id="paint1_linear_1_2788" x1="72.5452" y1="25.5942" x2="72.5452" y2="70.4501" gradientUnits="userSpaceOnUse">
<stop stop-color="#2E3388"/>
<stop offset="1" stop-color="#131651"/>
</linearGradient>
<linearGradient id="paint2_linear_1_2788" x1="43.5677" y1="23.4712" x2="43.5677" y2="107.333" gradientUnits="userSpaceOnUse">
<stop offset="0.0260417" stop-color="#6167D8"/>
<stop offset="1" stop-color="#131651"/>
</linearGradient>
<clipPath id="clip0_1_2788">
<rect width="92" height="92" rx="14" fill="white"/>
</clipPath>
</defs>
</svg>
